<?xml version="1.0" encoding="UTF-8"?>
<svg id="Layer_2" xmlns="http://www.w3.org/2000/svg" viewBox="0 0 1316.14 1275.94">
  <defs>
    <style>
      .cls-1 {
        fill: none;
        opacity: .15;
        stroke: #c82b2a;
        stroke-miterlimit: 10;
        stroke-width: 2px;
      }
    </style>
  </defs>
  <path class="cls-1" d="M850.67,332.63c6.33,16.55,6.73,20.55,11.87,35.06,2.44,6.91,6.79,18.56,14.56,40.45,3.27,9.23,5.85,16.82,2.7,24.81-.51,1.29-3.04,7.71-9.17,10.79-8.95,4.5-19.08-1.4-30.74-5.93-4.22-1.64-17.56-4.15-44.22-9.17-19.98-3.76-35.61-3.76-66.88-3.78-30.58-.01-61.11-3.7-91.69-3.24-3.98.06-14.08.26-21.03-6.47-4.66-4.51-7.77-12.01-6.47-18.88,2.87-15.14,26.04-21.14,33.98-23.19,13.87-3.59,18.72-1.21,39.91-1.62,20.06-.38,38.47-.74,58.25-8.09,21.04-7.83,37.09-21.15,42.07-25.35,11.6-9.78,24.56-17.83,36.67-26.97,4.14-3.13,8.21-6.22,12.94-5.39,5.73,1,9.72,7.27,17.26,26.97Z"/>
  <path class="cls-1" d="M821.55,254.96c-17.96,7.2-29.05,19.86-32.36,23.73-10.89,12.71-9.49,18.71-21.03,30.74-9.67,10.08-19.45,15.05-28.04,19.42-18.45,9.37-34.43,12.19-48.54,14.56-25.7,4.32-26.92.43-50.7,4.85-19.32,3.6-32.22,6.15-45.3,16.18-6.09,4.67-20.39,15.63-23.19,34.52-.75,5.06-1.97,19.41,7.01,31.28,4.08,5.4,10.71,10.86,31.28,16.18,22.91,5.92,33.92,4.11,59.87,6.47,23.69,2.16,19.29,4.1,53.93,8.63,43.84,5.73,45.06,1.86,60.4,8.09,21.96,8.92,40.67,25.47,45.84,30.2,10.14,9.29,10.45,11.88,19.42,18.34,9.99,7.2,26.46,19.07,44.76,15.1,14.73-3.19,23.27-15.04,26.43-19.42,15.05-20.86,10.76-46.14,9.17-55.55-.76-4.48-1.13-4.73-16.18-42.61-11.76-29.59-14.23-36.24-16.98-46.38-3.1-11.45-5.78-21.37-6.75-35.06-1.57-21.96,3.24-25.82.54-43.69-1.93-12.78-3.92-25.98-14.02-34.52-18.74-15.84-50.54-3.09-55.55-1.08Z"/>
  <path class="cls-1" d="M894.62,576.5c-14.43-3.05-25.89.26-36.05,3.19-9.14,2.64-16.82,4.97-18.71,10.95-2.03,6.43,3.81,13.39,8.67,19.16,11.39,13.55,25.82,18.97,32.4,20.99,10.65,3.27,20.76,6.37,31.94,1.83,9.98-4.05,21.26-14.36,20.99-26.01-.4-17.48-26.58-27.44-39.24-30.11Z"/>
  <path class="cls-1" d="M852.73,710.42c-7.54-8.63-17.77-10.18-22.41-10.89-7.02-1.07-15.12-2.3-21.82,2.96-8.09,6.36-7.83,17.26-7.77,18.86.05,1.21.53,9.98,7.4,16.64,10.64,10.32,26.82,6.09,30.32,5.18,3.55-.93,19.08-4.98,21.08-15.9,1.37-7.49-4.38-14.07-6.8-16.84Z"/>
  <path class="cls-1" d="M690.26,829.67c2.67,1.6,6.45,4.21,24.17,27.35,12.65,16.52,12.24,17.18,24.17,33.07,12.66,16.87,19.14,24.17,26.08,38.8,7.18,15.14,6.58,20.72,4.45,24.17-1.21,1.97-4.57,5.93-17.81,7-17.43,1.41-28.93-4.05-45.79-9.54-10.21-3.33-25.56-8.32-45.16-10.81-21.48-2.73-38.42-4.88-51.51-1.27-8,2.2-11.48,1.89-18.44,1.27-6.6-.59-8.35-1.92-9.21-2.8-4.71-4.8-1.4-14.89-.26-18.37,3.44-10.48,8.08-12.55,16.79-24.93,5.33-7.56,3.07-6.05,16.79-29.65,9.03-15.53,11.47-18.7,13.12-20.73,6.59-8.1,11.88-14.6,20.47-18.37,19.32-8.47,40.11,3.59,42.14,4.82Z"/>
  <path class="cls-1" d="M576.86,667.27c-9.5,3.32-17.44,5.09-28.37,11.95-2.9,1.82-9.22,6.66-21.85,16.34-4.84,3.71-11.89,9.15-22.3,13.91-7.81,3.57-11.14,3.85-13.91,2.65-5.61-2.43-7.08-10.11-7.51-12.36-1.96-10.24,2.33-19.98,9.49-30.91,9.92-15.12,20.21-24.63,30.78-34.19,33.77-30.54,30.95-25.88,43.57-38.54,12.32-12.37,25.5-23.91,37.2-36.87,3.24-3.59,8.35-9.38,17.09-13.41,4.64-2.14,15.03-6.93,27.15-3.02,9.58,3.1,17.55,10.77,20.78,20.11,3.91,11.33-.42,21.49-5.03,31.84-2.62,5.9-11.91,25.26-35.86,44.24-22.91,18.15-48.18,27.19-51.24,28.26Z"/>
  <path class="cls-1" d="M638.01,666.36c-10.5,8.4-16.8,12.27-20.03,14.17-14.53,8.53-18.91,7.68-32.25,15.15-5.81,3.25-17.62,10-28.83,22.48-9.8,10.91-14.85,21.42-18.57,29.32-2.62,5.56-5.98,15.11-12.7,34.2-6,17.05-6.58,19.39-9.77,23.45-1.18,1.51-10.73,13.31-26.87,16.12-9.82,1.71-17.92-1.28-33.71-7.33-18.8-7.2-31.02-14.71-46.54-24.36-21.22-13.19-25.84-18.54-28.83-24.97-1.41-3.04-5.42-12.02-2.84-22.33,1.31-5.22,4.24-10.54,14.41-19.69,11.9-10.71,20.95-15.18,28.22-19.89,13.24-8.58,12.99-13.02,41.33-46.2,11.96-13.99,19.76-23.12,30.91-34.39,25.83-26.09,30.42-24.02,47.93-44.81,11.62-13.79,18.97-22.52,26.4-36.47,5.33-10.01,6.53-14.88,12.85-21.54,10.64-11.2,23.78-14.81,30.91-16.67,17.66-4.62,32.2-1.85,39.6-.35,10.22,2.07,37.33,7.56,54.19,31.26,3.83,5.38,12.92,18.16,11.81,34.73-.43,6.46-2.41,13.48-17.37,34.04-25.15,34.58-48.77,54.89-60.25,64.07Z"/>
  <path class="cls-1" d="M576.86,742.94c-3.64,5.56-5.92,11.86-10.48,24.46-6.71,18.52-6,23.3-10.92,36.26-3.33,8.75-8.21,21.62-19.22,33.64-17.12,18.7-38.63,23.99-46.31,25.78-9.7,2.25-26.35,6.12-44.12-.44-9.09-3.35-9.3-6.04-33.64-24.46-13.24-10.02-22.15-16.76-34.51-24.46-17.97-11.19-22.81-11.68-35.82-21.84-12.8-10-19.25-15.18-21.41-24.03-3.22-13.2,4.62-26.06,10.05-34.95,4.33-7.1,9.31-12.81,15.73-18.79,16.7-15.56,28.87-19.65,47.62-31.02,20.51-12.43,34.31-24.72,42.38-31.89,13.69-12.19,13.25-14.13,41.94-45.43,29.24-31.9,34.47-35.08,41.5-49.37,5.97-12.11,14.61-29.66,8.74-48.06-4.44-13.93-15.15-21.91-27.96-31.45-12.02-8.96-15.61-8.41-43.69-23.59-26.9-14.54-31.98-19.57-34.51-22.28-4.8-5.14-16.2-17.35-17.91-34.95-1.19-12.29,3.41-22.19,12.67-41.5,13.36-27.85,18.88-27.2,24.03-44.12,2.04-6.72,8.66-28.47,0-49.8-4.39-10.81-13.56-19.58-31.89-37.13-15.35-14.7-23.34-19.47-28.83-32.76-1.88-4.56-5.4-13.36-3.93-24.03,2.12-15.47,13.39-25.1,25.78-35.39,8.22-6.82,27.26-22.24,57.23-27.96,19.78-3.78,34.72-1.5,50.24.87,22.52,3.44,39.52,6.03,49.8,19.66,6.18,8.19,9.14,19.32,10.05,22.72,2.97,11.18,1.28,14.74,3.06,22.72,2.86,12.85,11.03,20.56,24.9,33.64,6.04,5.7,19.08,17.11,38.88,27.09,17.73,8.94,33.14,12.83,38.01,13.98,14.11,3.35,21.92,3.25,42.81,8.74,15.91,4.18,21.39,6.86,24.03,12.23,3.86,7.85-.36,17.31-2.18,21.41-2.04,4.58-6.56,12.36-17.91,19.66-11.29,7.26-20.49,8.36-46.74,12.23-27.83,4.1-41.89,6.2-49.37,8.3-11.94,3.36-26.06,7.46-41.5,17.91-9,6.09-23.74,16.06-33.64,35.39-10.17,19.85-9.36,38.08-8.74,51.99.64,14.38,3.39,19.33,4.37,20.97,7.5,12.53,22.46,16.2,33.64,18.79,16.51,3.81,24.82,1.94,43.25,2.18,8.77.12,32.94.89,58.54,7.43,6.63,1.69,30.61,8.19,57.67,24.9,0,0,25.27,15.62,41.94,39.75,3.47,5.03,7.66,12.01,6.12,19.66-.66,3.27-2.38,6.67-9.61,13.98-10.75,10.86-19.22,16.16-19.22,16.16-15,9.39-36.08,25.31-50.24,38.88-15.89,15.22-13.72,18.54-36.26,40.63-10.18,9.97-17.4,15.94-25.77,21.41-11.47,7.48-13.24,6.27-27.96,14.42-17.54,9.71-30.98,17.14-40.63,31.89Z"/>
  <path class="cls-1" d="M470.73,417.39c-13.6-3.84-19.73-15.14-20.94-17.53-5.22-10.26-3.58-20.19-1.95-29.22,2.57-14.25,7.06-16.34,12.66-32.15,5.86-16.53,6.66-30.33,7.31-41.4.82-14.18,1.49-25.63-2.44-40.43-2.96-11.15-7.03-26.52-19.97-38.48-7.83-7.24-14.13-8.82-22.89-19.97-8.64-11-8.04-16.5-7.79-18.02.52-3.22,2.5-7.5,14.61-15.1,18.11-11.36,35.12-15.22,41.89-16.56,12.75-2.52,21.01-4.16,32.15-1.95,6.71,1.33,22.1,4.39,28.74,16.07,3.06,5.38,1.6,7.92,5.84,16.07,3.25,6.25,6.87,10.08,11.69,15.1,16.72,17.42,25.09,26.14,25.81,26.79,13.18,11.86,26.02,20.98,28.74,22.89,3.75,2.64,10.62,8.42,24.35,19.97,4.33,3.64,8.26,7.05,8.77,12.18.51,5.15-2.68,9.69-6.33,13.64-10.25,11.09-21.53,14.72-33.12,19.97-16.9,7.66-28.39,16.03-38.48,23.38-14.28,10.4-22.37,16.29-30.69,27.28-10.39,13.72-17.53,30.2-17.53,30.2-5.33,12.29-5.01,16.14-10.23,20.94-7.62,7.01-19.71,9.29-30.2,6.33Z"/>
  <path class="cls-1" d="M516.57,310.56c-6.49-1.97-10.54-6.22-11.46-7.21-4.21-4.58-5.46-9.49-7.64-23.34-2.92-18.58-4.24-30.97-4.24-30.97-1.84-17.26-1.51-18.96-3.82-22.91-4-6.85-12.04-13.76-15.28-16.55-4.97-4.28-8.39-6.39-8.91-10.61-.42-3.38,1.13-7.17,3.82-9.33,3.64-2.93,7.69-1.53,16.55-.85,15.98,1.23,16.76-2.28,25.46.42,2.83.88,10.53,3.28,15.7,10.18,4.19,5.6,2.45,8.46,6.79,18.25,3.35,7.55,7.4,12.67,10.18,16.12,7.47,9.28,10.37,8.7,17.4,17.4,5.66,7.01,9.85,12.19,10.18,19.09.49,10.09-7.56,17.7-14.43,24.19-4.88,4.62-22.71,21.46-40.31,16.12Z"/>
  <path class="cls-1" d="M367.71,250.02c-12.45,3.49-19.28,14.33-20.68,16.55-5.73,9.09-5.8,17.43-5.91,31.91-.13,16.79-.24,30.24,9.45,39.59,1.66,1.6,6.16,5.84,13,7.09,16.34,3,30.74-13.8,36.64-20.68,9.06-10.57,21.67-25.29,17.73-43.14-4.65-21.04-30.23-36.92-50.23-31.32Z"/>
  <path class="cls-1" d="M357.23,448.4c13.23,5.05,10.31,4.88,38.94,16.84,20.67,8.63,25.41,10.06,38.94,16.31,21.2,9.8,31.94,14.88,38.94,23.68,2.36,2.97,11.89,15.29,12.1,32.1.12,9.63-2.85,18.2-22.63,46.3-19.57,27.81-29.35,41.71-40.51,51.04-8.51,7.12-22.86,14.92-51.56,30.52-14.96,8.13-24.07,13.06-37.1,18.94-27.95,12.61-41.92,18.92-54.45,17.36-21.32-2.65-38.68-19.24-46.91-34.49-7.09-13.14-3.15-17.41-11.19-48.9-6.13-24.01-9.04-23.96-12.88-40.36-3.13-13.4-2.53-19.17-.86-71.27,1.56-48.41,1.55-59.28,11.16-67.84,7.88-7.02,17.66-8.41,30.91-10.3,3.86-.55,16.95-2.2,47.23,3.43,30.24,5.63,52.58,13.86,59.89,16.65Z"/>
  <path class="cls-1" d="M335.85,654.87c17.16-6.24,25.73-9.37,30.75-11.73,8.24-3.88,16.59-7.8,25.98-14.76,6.21-4.6,19.2-15.21,30.12-33.07,6.78-11.1,14.41-23.59,13.58-40.16-.31-6.1-.65-12.91-5.31-18.31-7.24-8.37-19.45-7.05-40.75-6.5-34.65.91-51.97,1.36-62.01-2.36-20.72-7.7-23.42-20.34-43.7-21.85-4.65-.35-17.03-1.27-25.98,6.5-2.86,2.48-9.02,9.01-10.04,35.43-.28,7.19-.34,20.11,5.91,53.74,6.75,36.36,11.45,46.17,19.49,52.56,6.8,5.4,14.76,7.68,14.76,7.68,2.32.66,9.01,2.35,21.26.59,6.63-.95,11.13-2.37,25.94-7.76Z"/>
  <path class="cls-1" d="M337.7,607.78c5.32.73,9.05,1.24,13.69-.23,1.33-.42,11.45-3.63,12.06-10.21.62-6.59-8.76-11.52-10.67-12.53-.56-.29-12.95-6.57-23.2-.23-1.61,1-6.19,3.83-7.42,9.28-.21.95-1.08,4.77.93,8.12,2.48,4.14,7.73,4.86,14.62,5.8Z"/>
  <path class="cls-1" d="M867.04,668.73c-14.31-6.3-22.97-9.38-40.3-15.54-32.07-11.41-40.72-12.22-48.94-11.51-5.33.46-24.22,2.08-38.57,16.7-1.65,1.68-15.53,16.21-16.7,36.85-.6,10.53,2.48,16.19-1.73,24.76-4.19,8.53-12.02,12.62-14.39,13.82-10.84,5.48-18.34,2.11-36.06,1.96-12.38-.11-26.16-.23-39.49,5.57-16.12,7.01-24.97,19.79-31.28,28.89-11.63,16.79-9.05,22.96-20.67,46.91-8.54,17.58-15,30.91-28.28,43.4-11.24,10.58-15.39,9.29-49.91,33.75-12.88,9.12-18.01,13.35-20.91,20.91-5.46,14.23,1.35,28.84,4.75,36.12,10.73,22.99,30.57,34,40.4,39.45,5.97,3.31,25.19,13.28,52.28,14.73,17.88.96,19.59-2.84,59.89-8.08,24.02-3.12,36.33-4.67,51.33-3.8,10.62.61,29.38,1.86,51.33,10.93,14.65,6.05,32.54,13.45,45.15,31.37,6.43,9.14,9.04,18.54,14.26,37.35,9.33,33.65,4.59,38.15,10.86,49.95,17.04,32.06,70.6,33.73,77.38,33.94,39.89,1.24,69.36-17.76,81.45-25.79,33.58-22.3,29.31-37.6,73.31-76.02,31.01-27.08,35.85-21.85,52.94-40.73,39.74-43.86,40.71-102,40.73-107.24.2-71.19-49.88-118.96-76.02-143.9-41.22-39.32-87.75-58.08-99.1-62.45-30.64-11.8-50.34-13.19-93.71-32.28Z"/>
  <path class="cls-1" d="M640.5,779.9c-12.63,5.19-20.54,14.47-23.83,18.33-6.51,7.63-8.34,13.08-15.62,27.93-8.8,17.94-13.2,26.91-18.2,34.01-4.11,5.83-5.42,6.42-39.75,38.32-12.68,11.78-19.07,17.87-21.55,27.78-2.84,11.31.48,20.93,1.44,23.47,4.39,11.68,13.1,17.77,18.68,21.55,4.58,3.11,16.45,10.27,37.84,11.5,22.62,1.29,31.2-5.48,55.08-9.58,22.21-3.82,39.23-2.16,56.52-.48,25.35,2.47,59.26,5.76,91,28.74,12.22,8.84,26.85,19.43,33.53,38.32,4.77,13.5,1.15,18.99,6.71,37.84,3.24,11,7.85,26.65,20.12,38.32,20.54,19.54,50.71,16.67,59.87,15.81,7.7-.73,51.89-4.92,66.99-39.13.97-2.2,9.95-23.44.66-45.85-6.81-16.42-19.98-25.14-25.54-28.82-5.58-3.69-8.17-4.29-27.51-12.44-10.09-4.25-20.09-8.74-30.13-13.1-41.56-18.06-76.63-49.78-76.63-49.78-12.23-11.06-27.01-24.43-40.61-46.5-14.14-22.95-22.35-47.78-22.82-49.21-7.34-22.55-5.43-28.92-13.76-39.73-10.03-13.01-23.62-17.87-37.54-22.84-15.95-5.69-35.16-12.55-54.92-4.43Z"/>
  <path class="cls-1" d="M879.22,771.77c-30.8,5.21-33.98,4.74-47.71,8.51-19.77,5.43-29.66,8.14-38.09,16.64-13.74,13.85-15.01,32.52-15.53,40.31-1.46,21.57,6.72,37.78,10.73,45.49,3.39,6.52,12.95,23.17,53.63,51.78,6.23,4.38,19.31,13.35,55.1,33.29,44.6,24.84,67.27,37.34,85.78,41.13,21,4.3,52.95,10.84,77.07-6.12,37.51-26.37,30.81-91.8,22.02-123.55-13.18-47.58-46.35-74.61-58.72-84.41-11.79-9.34-31.36-24.48-59.94-29.36-14.4-2.46-27.66-1.72-36.7-1.22-13.7.76-16.5,2.26-47.62,7.52Z"/>
  <path class="cls-1" d="M804.19,835.77c-3.6,11.13-1.38,20.93,0,26.98,4.19,18.44,15.59,30.04,22.18,36.57,6.55,6.5,12.48,10.57,34.17,22.78,21.37,12.03,37.72,20.52,44.37,23.98,50,26.03,57.44,31.14,75.54,34.77,16.28,3.26,30.12,6.04,40.77-1.8,12.13-8.92,12.55-26.04,13.19-51.56.48-19.3.84-45.91-13.19-76.14-7.05-15.19-14.41-31.05-31.78-42.57-16.83-11.17-35.62-13.32-44.97-14.39-5.43-.62-14.61-.61-32.97-.6-17.45.01-26.18.02-32.38.6-14.97,1.4-29.11,2.72-44.37,10.79-9.12,4.82-24.96,13.2-30.58,30.58Z"/>
  <path class="cls-1" d="M858.15,817.78c-7.96,2.54-15.36,4.99-22.18,11.99-2.7,2.78-10.67,11.76-11.39,24.58-.77,13.79,7.28,24.03,12.59,30.58,12.85,15.85,23.16,16.51,60.17,37.17,13.86,7.74,20.84,12.35,39.67,22.21,21.77,11.39,31.61,15.25,42.85,12.57,1.95-.47,11.93-2.85,18.59-11.39,10.84-13.9,4.87-33.85-4.2-64.15-7.49-25.04-11.48-37.76-23.38-47.96-11.56-9.91-25.3-13.66-32.38-15.59-9.57-2.61-16.77-2.94-31.18-3.6-20.55-.94-33.45-1.41-49.16,3.6Z"/>
  <path class="cls-1" d="M873.73,850.91c-2.51,1.49-7.07,4.21-7.85,8.86-.33,1.96-.05,4.68,3.04,9.11,2.47,3.55,6.95,8.5,28.42,17.97,8.69,3.83,12.16,4.88,16.64,4.56,2.51-.18,8.94-.65,12.4-5.32,4.77-6.44.39-16.12-1.01-19.24-3.83-8.48-10.6-12.72-13.42-14.43-9.17-5.57-18.08-5.44-22.78-5.32-3.95.11-9.62.33-15.44,3.8Z"/>
  <path class="cls-1" d="M868.12,1036.46c-1.38.37-4.66,1.29-6.92,4.2-1.61,2.08-1.9,4.13-2.22,10.62-.72,14.28.02,16.87.49,18.28,1.04,3.1,2.15,6.4,5.43,8.4,4.4,2.67,9.45,1.04,10.37.74,3.75-1.21,5.78-3.65,9.63-8.4,4.34-5.35,6.51-8.03,7.16-12.1,1.18-7.32-3-13.13-3.71-14.08-4.76-6.41-13.3-9.51-20.25-7.66Z"/>
  <path class="cls-1" d="M730.58,1024.42c-9.98-4.28-24.21-10.22-42.98-10.42-12.13-.13-14.39,2.26-40.38,7.16-15.12,2.85-30.02,5.67-45.59,6.51-28.78,1.56-51.29-4.06-57.96-5.86-25.7-6.92-42.45-17.9-63.82-31.91-13.84-9.08-32.86-21.54-52.75-42.98-15.64-16.86-15.85-22.06-31.91-36.47-16.35-14.67-32.06-24.56-39.08-28.66-4.46-2.61-8.99-5.26-15.29-8.17-20.21-9.37-42.47-19.69-58.96-10.06-14.16,8.27-16.71,26.96-16.93,28.66-1.63,12.46,4.2,16.42,6.51,31.91,2.71,18.13-3.98,21.36-5.21,42.98-.65,11.48-2.18,38.27,13.68,57.96,6.6,8.2,16.12,13.5,35.17,24.1,12.21,6.8,22.77,11.29,29.96,14.33,17.64,7.45,22.61,7.98,34.52,13.03,17.41,7.38,26.41,14.59,39.08,22.79,0,0,29.46,19.1,66.12,32.93,27.88,10.52,54.6,10.5,108.06,10.46,58.22-.04,39.84-7.2,110.96-9.88,19.13-.72,38.35-.88,54.03-14.52,3.85-3.35,17.48-16.21,18.59-36.6.96-17.71-8.12-30.34-11.04-34.28-8.81-11.88-19.73-16.56-34.77-23.01Z"/>
  <path class="cls-1" d="M749.99,1068.72c-2.18-7.09-6.37-11.5-9.81-15.05-2.86-2.94-11.13-10.76-26.17-15.05-16.09-4.59-29.09-2.04-45.14.65-28.04,4.71-44.26,7.44-60.19,8.51-23.56,1.58-43.19-1.35-82.44-7.2-23.51-3.5-31.1-5.81-38.6-9.16-16.19-7.23-17.49-12.86-37.95-24.86-10.83-6.36-21.62-10.78-43.18-19.63-37.3-15.3-38.21-12.48-44.49-18.97-12.16-12.57-26.56-41.55-27.69-43.83-.88-1.78-3.6-7.39-9.6-11.12-1.74-1.08-8.86-5.51-15.7-2.62-5.68,2.4-7.79,8.42-8.51,10.47-2.82,8.07-.07,14.42,1.31,21.59,3.9,20.32-7.8,23.8-3.93,40.56,3.21,13.88,14.36,25.01,25.52,30.1,6.38,2.91,11.85,3.42,18.7,4.07,15.76,1.48,23.36-1.86,33.51-2.61,18.15-1.33,32.19,6.55,51.02,17.13,10.17,5.71,24.84,13.95,37.61,30.16,9.4,11.93,9.04,17.1,22.71,35,9.55,12.5,14.32,18.75,21.97,22.71,12.24,6.35,22,2.93,43.57.74,24.59-2.49,17.46,1.4,67.03,0,40.88-1.16,35.15-3.51,55.11-2.61,18.58.84,27.98,3.07,42.82-1.49,8.1-2.49,20.82-6.6,28.3-18.99,1.33-2.21,8.49-14.59,4.21-28.52Z"/>
  <path class="cls-1" d="M405.86,1044.52c-4.53-4.26-10.53-3.53-14.74-3.01-3.68.45-11.22,1.37-13.06,6.36-2,5.43,4.21,11.59,5.69,13.06,1.5,1.49,8.48,8.42,16.75,6.03.65-.19,6.9-2.11,9.04-8.37,1.81-5.28-.26-10.85-3.68-14.07Z"/>
  <path class="cls-1" d="M698.68,1069.58c-2.38-1.82-9.27-6.33-35.97-2.52-18.38,2.62-19.3,5.35-31.55,6.19-12.75.87-13.18-1.99-34.7-4.3-31.74-3.4-30.77,2.83-49.85-1.89-8.73-2.16-16.17-5.26-22.08-1.26-5.92,4-6.28,12.36-6.31,13.25-.3,10.32,8.54,17.23,10.73,18.93,4.63,3.62,11.94,7.17,30.29,6.94,14.68-.18,22.32-2.6,35.97-5.05,33.22-5.96,49.84-8.94,68.78-3.79,10.79,2.93,18.96,7.51,29.02,3.79,1.06-.39,12.82-4.93,13.88-14.51.95-8.56-7.32-15.1-8.2-15.77Z"/>
</svg>