<?xml version="1.0" encoding="UTF-8"?>
<svg id="Layer_1" xmlns="http://www.w3.org/2000/svg" viewBox="0 0 139.86 139.84">
  <defs>
    <style>
      .cls-1, .cls-2 {
        fill: #c82b2a;
      }

      .cls-2 {
        font-family: MyriadPro-Regular, 'Myriad Pro';
        font-size: 16px;
      }
    </style>
  </defs>
  <text class="cls-2" transform="translate(44.73 19.1) rotate(-22.4)"><tspan x="0" y="0">S</tspan></text>
  <text class="cls-2" transform="translate(51.81 16.28) rotate(-16.74)"><tspan x="0" y="0">i</tspan></text>
  <text class="cls-2" transform="translate(55.1 15.13) rotate(-10.56)"><tspan x="0" y="0">g</tspan></text>
  <text class="cls-2" transform="translate(63.43 13.55) rotate(-2.04)"><tspan x="0" y="0">n</tspan></text>
  <text class="cls-2" transform="translate(71.96 13.25) rotate(6.05)"><tspan x="0" y="0">e</tspan></text>
  <text class="cls-2" transform="translate(79.65 14.16) rotate(11.57)"><tspan x="0" y="0"> </tspan></text>
  <text class="cls-2" transform="translate(82.76 14.6) rotate(18.01)"><tspan x="0" y="0">A</tspan></text>
  <text class="cls-2" transform="translate(91.75 17.58) rotate(26.6)"><tspan x="0" y="0">a</tspan></text>
  <text class="cls-2" transform="translate(98.37 20.81) rotate(34.67)"><tspan x="0" y="0">g</tspan></text>
  <text class="cls-2" transform="translate(105.42 25.71) rotate(42.69)"><tspan x="0" y="0">a</tspan></text>
  <text class="cls-2" transform="translate(110.87 30.71) rotate(50.13)"><tspan x="0" y="0">a</tspan></text>
  <text class="cls-2" transform="translate(115.6 36.46) rotate(56.39)"><tspan x="0" y="0">r</tspan></text>
  <text class="cls-2" transform="translate(118.36 40.36) rotate(63.14)"><tspan x="0" y="0">d</tspan></text>
  <text class="cls-2" transform="translate(122.19 48.23) rotate(69.18)"><tspan x="0" y="0"> </tspan></text>
  <text class="cls-2" transform="translate(123.41 51.12) rotate(74.5)"><tspan x="0" y="0">L</tspan></text>
  <text class="cls-2" transform="translate(125.37 58.09) rotate(81.94)"><tspan x="0" y="0">a</tspan></text>
  <text class="cls-2" transform="translate(126.4 65.33) rotate(89.07)"><tspan x="0" y="0">u</tspan></text>
  <text class="cls-2" transform="translate(126.39 73.89) rotate(96.61)"><tspan x="0" y="0">r</tspan></text>
  <text class="cls-2" transform="translate(125.78 78.94) rotate(101.03)"><tspan x="0" y="0">i</tspan></text>
  <text class="cls-2" transform="translate(125.27 82.39) rotate(107.25)"><tspan x="0" y="0">d</tspan></text>
  <text class="cls-2" transform="translate(122.63 90.67) rotate(114.74)"><tspan x="0" y="0">s</tspan></text>
  <text class="cls-2" transform="translate(120.17 96.18) rotate(121.72)"><tspan x="0" y="0">e</tspan></text>
  <text class="cls-2" transform="translate(116.18 102.73) rotate(129.88)"><tspan x="0" y="0">n</tspan></text>
  <text class="cls-2" transform="translate(110.58 109.24) rotate(135.77)"><tspan x="0" y="0"> </tspan></text>
  <text class="cls-2" transform="translate(108.24 111.53) rotate(139.06)"><tspan x="0" y="0"> </tspan></text>
  <text class="cls-2" transform="translate(105.8 113.64) rotate(142.31)"><tspan x="0" y="0"> </tspan></text>
  <text class="cls-2" transform="translate(103.23 115.63) rotate(145.59)"><tspan x="0" y="0"> </tspan></text>
  <text class="cls-2" transform="translate(100.56 117.47) rotate(148.87)"><tspan x="0" y="0"> </tspan></text>
  <text class="cls-2" transform="translate(97.91 119.21) rotate(154.36)"><tspan x="0" y="0">S</tspan></text>
  <text class="cls-2" transform="translate(91 122.43) rotate(160.02)"><tspan x="0" y="0">i</tspan></text>
  <text class="cls-2" transform="translate(87.8 123.76) rotate(166.2)"><tspan x="0" y="0">g</tspan></text>
  <text class="cls-2" transform="translate(79.56 125.81) rotate(174.77)"><tspan x="0" y="0">n</tspan></text>
  <text class="cls-2" transform="translate(71.08 126.58) rotate(-177.17)"><tspan x="0" y="0">e</tspan></text>
  <text class="cls-2" transform="translate(63.33 126.1) rotate(-171.67)"><tspan x="0" y="0"> </tspan></text>
  <text class="cls-2" transform="translate(60.2 125.84) rotate(-165.24)"><tspan x="0" y="0">A</tspan></text>
  <text class="cls-2" transform="translate(51.05 123.37) rotate(-156.63)"><tspan x="0" y="0">a</tspan></text>
  <text class="cls-2" transform="translate(44.26 120.51) rotate(-148.54)"><tspan x="0" y="0">g</tspan></text>
  <text class="cls-2" transform="translate(36.95 116.02) rotate(-140.51)"><tspan x="0" y="0">a</tspan></text>
  <text class="cls-2" transform="translate(31.24 111.34) rotate(-133.08)"><tspan x="0" y="0">a</tspan></text>
  <text class="cls-2" transform="translate(26.19 105.87) rotate(-126.84)"><tspan x="0" y="0">r</tspan></text>
  <text class="cls-2" transform="translate(23.23 102.14) rotate(-120.12)"><tspan x="0" y="0">d</tspan></text>
  <text class="cls-2" transform="translate(18.95 94.49) rotate(-114.07)"><tspan x="0" y="0"> </tspan></text>
  <text class="cls-2" transform="translate(17.56 91.66) rotate(-108.74)"><tspan x="0" y="0">L</tspan></text>
  <text class="cls-2" transform="translate(15.22 84.82) rotate(-101.3)"><tspan x="0" y="0">a</tspan></text>
  <text class="cls-2" transform="translate(13.71 77.62) rotate(-93.31)"><tspan x="0" y="0">u</tspan></text>
  <text class="cls-2" transform="translate(13.31 69.11) rotate(-86.6)"><tspan x="0" y="0">r</tspan></text>
  <text class="cls-2" transform="translate(13.64 64.02) rotate(-82.22)"><tspan x="0" y="0">i</tspan></text>
  <text class="cls-2" transform="translate(13.95 60.55) rotate(-75.99)"><tspan x="0" y="0">d</tspan></text>
  <text class="cls-2" transform="translate(16.12 52.13) rotate(-68.5)"><tspan x="0" y="0">s</tspan></text>
  <text class="cls-2" transform="translate(18.26 46.51) rotate(-61.53)"><tspan x="0" y="0">e</tspan></text>
  <text class="cls-2" transform="translate(21.87 39.73) rotate(-53.34)"><tspan x="0" y="0">n</tspan></text>
  <text class="cls-2" transform="translate(27.11 32.91) rotate(-47.43)"><tspan x="0" y="0"> </tspan></text>
  <circle class="cls-1" cx="69.92" cy="69.9" r="48.89"/>
</svg>