<svg width="48" height="37" viewBox="0 0 48 37" fill="none" xmlns="http://www.w3.org/2000/svg">
<path d="M47 6.25V30.75C47 32.1424 46.4408 33.4777 45.4454 34.4623C44.45 35.4469 43.1 36 41.6923 36H6.30769C4.9 36 3.54997 35.4469 2.55459 34.4623C1.5592 33.4777 1 32.1424 1 30.75V6.25M47 6.25C47 4.85761 46.4408 3.52226 45.4454 2.53769C44.45 1.55312 43.1 1 41.6923 1H6.30769C4.9 1 3.54997 1.55312 2.55459 2.53769C1.5592 3.52226 1 4.85761 1 6.25M47 6.25V6.817C47.0001 7.71334 46.7682 8.59478 46.3264 9.37736C45.8845 10.1599 45.2475 10.8176 44.4759 11.2877L26.7836 22.056C25.9466 22.5659 24.983 22.8359 24 22.8359C23.017 22.8359 22.0534 22.5659 21.2164 22.056L3.5241 11.29C2.75253 10.8199 2.11549 10.1623 1.67365 9.37969C1.23181 8.59711 0.9999 7.71567 1 6.81933V6.25" stroke="#C82A2A" stroke-width="1.5" stroke-linecap="round" stroke-linejoin="round"/>
</svg>
