<svg width="93" height="73" viewBox="0 0 93 73" fill="none" xmlns="http://www.w3.org/2000/svg">
<path d="M0.5625 21.9312V59.4687C0.5625 62.9496 1.94531 66.288 4.40672 68.7494C6.86814 71.2108 10.2065 72.5937 13.6875 72.5937H79.3125C82.7935 72.5937 86.1319 71.2108 88.5933 68.7494C91.0547 66.288 92.4375 62.9496 92.4375 59.4687V21.9312L53.3775 45.963C51.3092 47.2355 48.9284 47.9092 46.5 47.9092C44.0716 47.9092 41.6908 47.2355 39.6225 45.963L0.5625 21.9312Z" fill="#CA2A2B"/>
<path d="M92.4375 14.2225V13.5312C92.4375 10.0503 91.0547 6.71189 88.5933 4.25047C86.1319 1.78906 82.7935 0.40625 79.3125 0.40625H13.6875C10.2065 0.40625 6.86814 1.78906 4.40672 4.25047C1.94531 6.71189 0.5625 10.0503 0.5625 13.5312V14.2225L43.0612 40.3762C44.0954 41.0125 45.2858 41.3493 46.5 41.3493C47.7142 41.3493 48.9046 41.0125 49.9388 40.3762L92.4375 14.2225Z" fill="#CA2A2B"/>
</svg>
