<svg width="68" height="112" viewBox="0 0 68 112" fill="none" xmlns="http://www.w3.org/2000/svg">
<path d="M26.625 89.1875C25.647 89.1875 24.7091 89.576 24.0175 90.2675C23.326 90.9591 22.9375 91.897 22.9375 92.875C22.9375 93.853 23.326 94.7909 24.0175 95.4825C24.7091 96.174 25.647 96.5625 26.625 96.5625H41.375C42.353 96.5625 43.2909 96.174 43.9825 95.4825C44.674 94.7909 45.0625 93.853 45.0625 92.875C45.0625 91.897 44.674 90.9591 43.9825 90.2675C43.2909 89.576 42.353 89.1875 41.375 89.1875H26.625Z" fill="#CA2A2B"/>
<path fill-rule="evenodd" clip-rule="evenodd" d="M17.4062 0.6875C13.0053 0.6875 8.78463 2.43577 5.6727 5.5477C2.56076 8.65963 0.8125 12.8803 0.8125 17.2812V94.7187C0.8125 99.1197 2.56076 103.34 5.6727 106.452C8.78463 109.564 13.0053 111.312 17.4062 111.312H50.5937C54.9947 111.312 59.2154 109.564 62.3273 106.452C65.4392 103.34 67.1875 99.1197 67.1875 94.7187V17.2812C67.1875 12.8803 65.4392 8.65963 62.3273 5.5477C59.2154 2.43577 54.9947 0.6875 50.5937 0.6875H17.4062ZM11.875 17.2812C11.875 14.228 14.353 11.75 17.4062 11.75H22.9375V13.5937C22.9375 16.647 25.4155 19.125 28.4687 19.125H39.5312C42.5845 19.125 45.0625 16.647 45.0625 13.5937V11.75H50.5937C53.647 11.75 56.125 14.228 56.125 17.2812V94.7187C56.125 97.772 53.647 100.25 50.5937 100.25H17.4062C15.9393 100.25 14.5324 99.6672 13.4951 98.6299C12.4578 97.5926 11.875 96.1857 11.875 94.7187V17.2812Z" fill="#CA2A2B"/>
</svg>
