<svg width="55" height="53" viewBox="0 0 55 53" fill="none" xmlns="http://www.w3.org/2000/svg">
<path d="M1 12.7692C1 34.4351 19.2537 52 41.7692 52H47.8846C49.5065 52 51.062 51.38 52.2088 50.2764C53.3557 49.1729 54 47.6761 54 46.1154V42.5271C54 41.1775 53.046 40.0006 51.6843 39.6737L39.6628 36.7811C38.4669 36.4934 37.2112 36.9249 36.4747 37.8717L33.8383 41.2534C33.0718 42.2368 31.7482 42.6709 30.5495 42.2472C26.0999 40.6731 22.0591 38.1871 18.7068 34.9613C15.3546 31.7356 12.7711 27.8472 11.1352 23.5655C10.6949 22.4122 11.1461 21.1385 12.1681 20.4009L15.6824 17.864C16.669 17.1552 17.1147 15.9443 16.8157 14.7962L13.8097 3.22831C13.6443 2.59197 13.2626 2.02707 12.7254 1.62334C12.1881 1.21962 11.5261 1.00022 10.8444 1H7.11538C5.49348 1 3.93801 1.61998 2.79115 2.72356C1.6443 3.82714 1 5.32392 1 6.88462V12.7692Z" stroke="#CA2A2B" stroke-width="1.5" stroke-linecap="round" stroke-linejoin="round"/>
</svg>
